<svg width="48" height="48" viewBox="0 0 48 48" fill="none" xmlns="http://www.w3.org/2000/svg">
<path d="M17.457 31.51C17.9068 31.829 18.4443 32.001 18.9957 32.0024C19.5472 32.0039 20.0855 31.8346 20.537 31.518C20.942 31.23 21.26 30.836 21.454 30.379L22.69 26.61C22.9922 25.7015 23.5021 24.876 24.179 24.199C24.856 23.5221 25.6815 23.0122 26.59 22.71L30.221 21.527C30.742 21.3432 31.1933 21.0024 31.5124 20.5514C31.8316 20.1004 32.003 19.5615 32.003 19.009C32.003 18.4565 31.8316 17.9176 31.5124 17.4666C31.1933 17.0156 30.742 16.6748 30.221 16.491L26.521 15.298C25.6154 14.9952 24.7923 14.4864 24.1165 13.8118C23.4407 13.1372 22.9305 12.3151 22.626 11.41L21.447 7.781C21.2635 7.25983 20.9224 6.80866 20.471 6.49C20.0176 6.17666 19.4796 6.00883 18.9285 6.00883C18.3774 6.00883 17.8394 6.17666 17.386 6.49C16.9265 6.81539 16.5812 7.27724 16.399 7.81L15.206 11.477C14.9031 12.359 14.4041 13.1607 13.7466 13.822C13.0891 14.4833 12.2902 14.987 11.41 15.295L7.783 16.473C7.25918 16.6575 6.80594 17.0008 6.48638 17.455C6.16683 17.9093 5.99687 18.4518 6.00017 19.0072C6.00347 19.5625 6.17987 20.1031 6.5048 20.5535C6.82973 21.0038 7.28702 21.3417 7.813 21.52L11.4 22.685C12.3089 22.9897 13.1346 23.5016 13.8118 24.1802C14.4889 24.8588 14.9991 25.6854 15.302 26.595L16.482 30.218C16.665 30.739 17.006 31.191 17.458 31.51H17.457ZM19.162 29.388L19.1 29.469C19.07 29.4878 19.035 29.4973 18.9996 29.4962C18.9642 29.4951 18.9298 29.4836 18.901 29.463C18.8805 29.4491 18.8629 29.4315 18.849 29.411L17.679 25.811C17.2578 24.5291 16.5412 23.3641 15.587 22.41C14.6304 21.4552 13.4646 20.7362 12.182 20.31L8.613 19.156C8.57974 19.1431 8.55092 19.1209 8.53 19.092C8.50937 19.0628 8.49884 19.0277 8.5 18.992C8.5 18.956 8.512 18.922 8.532 18.892C8.54638 18.8722 8.56395 18.855 8.584 18.841L12.204 17.666C13.4657 17.2289 14.61 16.5073 15.548 15.557C16.4598 14.6285 17.1524 13.5078 17.575 12.277L18.763 8.616C18.7748 8.58229 18.7968 8.55313 18.8261 8.53267C18.8553 8.51221 18.8903 8.50148 18.926 8.502C18.9566 8.50188 18.9868 8.50964 19.0136 8.52452C19.0404 8.53941 19.0629 8.56092 19.079 8.587L20.251 12.187C20.6775 13.462 21.394 14.6207 22.344 15.572C23.2994 16.5259 24.4633 17.2448 25.744 17.672L29.344 18.84L29.41 18.859C29.4337 18.8711 29.4543 18.8885 29.47 18.91C29.49 18.94 29.5 18.974 29.5 19.01C29.5 19.046 29.49 19.08 29.47 19.11C29.4557 19.1286 29.4393 19.1454 29.421 19.16L25.811 20.331C24.5317 20.7554 23.3693 21.4728 22.4163 22.426C21.4634 23.3791 20.7462 24.5417 20.322 25.821L19.162 29.388ZM32.876 40.642C33.205 40.875 33.597 41 34 41.001L34.005 41.004C34.4127 41.0037 34.8101 40.8754 35.141 40.6371C35.4718 40.3988 35.7195 40.0626 35.849 39.676L36.418 37.926C36.5348 37.5768 36.7309 37.2595 36.991 36.9989C37.2511 36.7382 37.5681 36.5415 37.917 36.424L39.707 35.842C39.9904 35.7415 40.2466 35.5768 40.4557 35.3607C40.6648 35.1447 40.8209 34.8831 40.912 34.5966C41.0031 34.31 41.0265 34.0063 40.9805 33.7092C40.9346 33.4121 40.8204 33.1296 40.647 32.884C40.4 32.5382 40.0472 32.282 39.642 32.154L37.885 31.585C37.5358 31.4684 37.2185 31.2722 36.9581 31.0119C36.6978 30.7515 36.5016 30.4342 36.385 30.085L35.803 28.296C35.6688 27.9134 35.4182 27.5823 35.0864 27.3491C34.7547 27.1159 34.3583 26.9923 33.9528 26.9957C33.5473 26.999 33.153 27.129 32.825 27.3675C32.4971 27.6061 32.252 27.9412 32.124 28.326L31.552 30.083C31.4386 30.4269 31.2481 30.7404 30.9951 30.9995C30.7421 31.2586 30.4332 31.4565 30.092 31.578L28.302 32.16C27.92 32.2946 27.5896 32.5451 27.3569 32.8766C27.1243 33.208 27.0009 33.6039 27.0041 34.0088C27.0073 34.4138 27.1369 34.8077 27.3748 35.1354C27.6126 35.4632 27.947 35.7085 28.331 35.837L30.083 36.407C30.433 36.5238 30.751 36.7209 31.0114 36.9823C31.2718 37.2438 31.4676 37.5625 31.583 37.913L32.165 39.701C32.299 40.081 32.547 40.41 32.875 40.642H32.876ZM30.86 34.04L30.742 34.001L30.882 33.952C31.5933 33.7065 32.2382 33.2997 32.7661 32.7635C33.294 32.2272 33.6907 31.5761 33.925 30.861L33.965 30.74L34.005 30.868C34.2441 31.5882 34.6482 32.2425 35.185 32.7788C35.7218 33.3152 36.3766 33.7186 37.097 33.957L37.253 34.007L37.132 34.047C36.4108 34.2859 35.7555 34.6903 35.2184 35.2277C34.6814 35.7651 34.2775 36.4206 34.039 37.142L33.999 37.263L33.959 37.14C33.7204 36.417 33.3156 35.76 32.7773 35.2217C32.239 34.6834 31.582 34.2786 30.859 34.04H30.86Z" fill="white"/>
</svg>
